<svg width="18" height="20" viewBox="0 0 18 20" fill="none" xmlns="http://www.w3.org/2000/svg">
<path d="M13 10.0017C13 12.2109 11.2091 14.0017 9 14.0017C6.79086 14.0017 5 12.2109 5 10.0017C5 7.79258 6.79086 6.00172 9 6.00172C11.2091 6.00172 13 7.79258 13 10.0017ZM11 10.0017C11 8.89715 10.1046 8.00172 9 8.00172C7.89543 8.00172 7 8.89715 7 10.0017C7 11.1063 7.89543 12.0017 9 12.0017C10.1046 12.0017 11 11.1063 11 10.0017Z" fill="white"/>
<path d="M0 6.76693C0 5.67743 0.590676 4.67356 1.54307 4.14446L7.54307 0.811122C8.44914 0.307751 9.55086 0.307751 10.4569 0.811122L16.4569 4.14445C17.4093 4.67356 18 5.67743 18 6.76693V13.2365C18 14.326 17.4093 15.3299 16.4569 15.859L10.4569 19.1923C9.55086 19.6957 8.44914 19.6957 7.54307 19.1923L1.54307 15.859C0.590677 15.3299 0 14.326 0 13.2365V6.76693ZM15.4856 5.89277L9.48564 2.55944C9.18362 2.39165 8.81638 2.39165 8.51436 2.55944L2.51436 5.89277C2.19689 6.06914 2 6.40376 2 6.76693V13.2365C2 13.5997 2.19689 13.9343 2.51436 14.1107L8.51436 17.444C8.81638 17.6118 9.18362 17.6118 9.48564 17.444L15.4856 14.1107C15.8031 13.9343 16 13.5997 16 13.2365V6.76693C16 6.40376 15.8031 6.06914 15.4856 5.89277Z" fill="white"/>
</svg>
